<?xml version="1.0" encoding="utf-8"?>
<!-- Generator: Adobe Illustrator 26.2.1, SVG Export Plug-In . SVG Version: 6.00 Build 0)  -->
<svg version="1.1" id="Layer_1" xmlns="http://www.w3.org/2000/svg" xmlns:xlink="http://www.w3.org/1999/xlink" x="0px" y="0px"
	 viewBox="0 0 174.2 36.2" style="enable-background:new 0 0 174.2 36.2;" xml:space="preserve">
<style type="text/css">
	.st0{fill:#FFFFFF;}
	.st1{fill:#414042;}
</style>
<g id="Layer_2_00000163053470912099449130000013339511525256969889_">
	<g id="Layer_1-2">
		<path class="st0" d="M36.2,18.1C36.2,8.1,28.1,0,18.1,0S0,8.1,0,18.1s8.1,18.1,18.1,18.1c0,0,0,0,0,0h9v-9h-9c-5,0-9-4-9-9
			s4-9,9-9s9,4,9,9L36.2,18.1z"/>
		<rect x="36.2" y="27.1" class="st1" width="9" height="9"/>
		<path d="M56.9,15.8c0.6-1,1.4-1.8,2.4-2.4c2.2-1.2,4.9-1.1,7.1,0.2c1.1,0.7,1.9,1.7,2.4,2.9h-2.6c-0.3-0.6-0.8-1.1-1.4-1.5
			c-0.6-0.3-1.4-0.5-2.1-0.5c-0.8,0-1.6,0.2-2.3,0.6c-0.7,0.4-1.2,1-1.6,1.7c-0.4,0.8-0.6,1.7-0.6,2.5c0,0.9,0.2,1.7,0.6,2.5
			c0.4,0.7,0.9,1.3,1.6,1.7c0.7,0.4,1.5,0.6,2.3,0.6c0.7,0,1.4-0.2,2.1-0.5c0.6-0.4,1.1-0.9,1.4-1.6h2.6c-0.4,1.2-1.3,2.2-2.4,2.9
			c-2.2,1.3-4.8,1.3-7.1,0.2c-1-0.6-1.8-1.4-2.4-2.4c-0.6-1.1-0.9-2.2-0.9-3.5C56,18,56.3,16.8,56.9,15.8z"/>
		<path d="M73.8,25.1c-1-0.6-1.8-1.4-2.4-2.4c-0.6-1-0.9-2.2-0.9-3.4c0-1.2,0.3-2.4,0.9-3.4c0.6-1,1.4-1.8,2.4-2.4
			c2.1-1.1,4.6-1.1,6.7,0c1,0.6,1.8,1.4,2.4,2.4c1.2,2.1,1.2,4.7,0,6.9c-0.6,1-1.4,1.8-2.4,2.4C78.4,26.2,75.9,26.2,73.8,25.1z
			 M79.5,23.5c0.7-0.4,1.2-1,1.6-1.7c0.4-0.8,0.6-1.7,0.6-2.5c0-0.9-0.2-1.8-0.6-2.5c-0.4-0.7-0.9-1.3-1.6-1.7
			c-1.4-0.8-3.2-0.8-4.6,0c-0.7,0.4-1.2,1-1.6,1.7c-0.4,0.8-0.6,1.7-0.6,2.5c0,0.9,0.2,1.8,0.6,2.5c0.4,0.7,0.9,1.3,1.6,1.7
			C76.3,24.2,78,24.2,79.5,23.5L79.5,23.5z"/>
		<path d="M96.6,25.8h-2.1L88.1,16v9.7h-2.1v-13h2.1l6.4,9.7v-9.7h2.1V25.8z"/>
		<path d="M107.9,12.7v1.8h-3.5v11.3h-2.1V14.5h-3.5v-1.8H107.9z"/>
		<path d="M112.7,25.1c-1-0.6-1.8-1.4-2.4-2.4c-0.6-1-0.9-2.2-0.9-3.4c0-1.2,0.3-2.4,0.9-3.4c0.6-1,1.4-1.8,2.4-2.4
			c2.1-1.1,4.6-1.1,6.7,0c1,0.6,1.8,1.4,2.4,2.4c0.6,1,0.9,2.2,0.9,3.4c0,1.2-0.3,2.4-0.9,3.4c-0.6,1-1.4,1.8-2.4,2.4
			C117.3,26.2,114.7,26.2,112.7,25.1z M118.3,23.5c0.7-0.4,1.2-1,1.6-1.7c0.4-0.8,0.6-1.7,0.6-2.5c0-0.9-0.2-1.8-0.6-2.5
			c-0.4-0.7-0.9-1.3-1.6-1.7c-0.7-0.4-1.5-0.6-2.3-0.6c-0.8,0-1.6,0.2-2.3,0.6c-0.7,0.4-1.2,1-1.6,1.7c-0.4,0.8-0.6,1.7-0.6,2.5
			c0,0.9,0.2,1.8,0.6,2.5c0.3,0.7,0.9,1.3,1.6,1.7c0.7,0.4,1.5,0.6,2.3,0.6C116.8,24.1,117.6,23.9,118.3,23.5z"/>
		<path d="M126.9,12.7V21c-0.2,1.5,0.9,2.8,2.3,3c0.2,0,0.4,0,0.7,0c0.8,0.1,1.6-0.2,2.2-0.8c0.6-0.6,0.8-1.4,0.8-2.2v-8.3h2.1V21
			c0,1-0.2,1.9-0.7,2.7c-0.4,0.7-1.1,1.3-1.9,1.6c-0.8,0.4-1.7,0.6-2.6,0.5c-0.9,0-1.8-0.2-2.6-0.5c-0.8-0.4-1.4-0.9-1.8-1.6
			c-0.5-0.8-0.7-1.8-0.7-2.7v-8.3H126.9z"/>
		<path d="M144.5,25.8l-3-5.2h-1.6v5.2h-2.1v-13h4.5c0.9,0,1.7,0.2,2.5,0.5c0.6,0.3,1.2,0.8,1.6,1.4c0.4,0.6,0.5,1.3,0.5,2
			c0,0.8-0.3,1.6-0.8,2.3c-0.6,0.7-1.4,1.2-2.3,1.4l3.2,5.4L144.5,25.8z M139.9,18.9h2.4c0.7,0,1.3-0.2,1.8-0.6
			c0.4-0.4,0.6-1,0.6-1.6c0-0.6-0.2-1.2-0.6-1.6c-0.5-0.4-1.2-0.6-1.8-0.6h-2.4L139.9,18.9z"/>
		<path d="M160.3,25.8h-2.1l-6.4-9.8v9.7h-2.1v-13h2.1l6.4,9.7v-9.7h2.1V25.8z"/>
		<path d="M171,23.1h-5.5l-0.9,2.7h-2.2l4.6-13.1h2.5l4.7,13.1h-2.3L171,23.1z M170.4,21.4l-2.1-6.1l-2.1,6.1H170.4z"/>
	</g>
</g>
</svg>
