<?xml version="1.0" encoding="utf-8"?>
<!-- Generator: Adobe Illustrator 26.2.1, SVG Export Plug-In . SVG Version: 6.00 Build 0)  -->
<svg version="1.1" id="Layer_1" xmlns="http://www.w3.org/2000/svg" xmlns:xlink="http://www.w3.org/1999/xlink" x="0px" y="0px"
	 viewBox="0 0 329.5 232.7" style="enable-background:new 0 0 329.5 232.7;" xml:space="preserve">
<style type="text/css">
	.st0{fill:#FDB913;}
	.st1{fill:#FFFFFF;stroke:#FFFFFF;stroke-miterlimit:10;}
	.st2{fill:#FFFFFF;}
</style>
<g id="Layer_2_00000047019215542489995490000002621433265765108353_">
	<g id="Layer_2-2">
		<path class="st0" d="M215.8,82.8C215.8,37.1,178.7,0,133,0C87.3,0,50.2,37.1,50.2,82.8c0,45.7,37,82.8,82.8,82.8h41.4v-41.4H133
			c-22.8,0-41.3-18.5-41.3-41.4s18.5-41.3,41.4-41.3s41.3,18.5,41.3,41.3L215.8,82.8z"/>
		<rect x="215.9" y="124.1" class="st1" width="41.3" height="41.4"/>
		<path class="st2" d="M2.5,204.5c1.6-2.8,3.9-5.1,6.8-6.6c2.9-1.6,6.1-2.4,9.3-2.4c3.6-0.1,7.2,0.9,10.3,2.9c3,1.9,5.3,4.7,6.6,8.1
			h-7.2c-0.8-1.8-2.2-3.3-3.9-4.3c-1.8-1-3.8-1.5-5.8-1.4c-2.3,0-4.5,0.5-6.4,1.6c-1.9,1.1-3.4,2.7-4.4,4.6c-2.1,4.5-2.1,9.7,0,14.1
			c1,2,2.5,3.6,4.4,4.7c2,1.1,4.2,1.7,6.4,1.6c2,0,4-0.4,5.8-1.4c1.7-1,3.1-2.5,3.9-4.3h7.2c-1.2,3.3-3.5,6.2-6.6,8.1
			c-3.1,1.9-6.7,2.9-10.3,2.8c-3.3,0-6.5-0.8-9.4-2.4c-2.8-1.6-5.1-3.8-6.7-6.6C-0.8,217.7-0.8,210.4,2.5,204.5L2.5,204.5z"/>
		<path class="st2" d="M49.7,230.4c-2.8-1.6-5.2-3.9-6.8-6.6c-3.3-6-3.3-13.2,0-19.2c1.6-2.8,3.9-5.1,6.8-6.6
			c5.8-3.2,12.9-3.2,18.7,0c2.8,1.6,5.1,3.8,6.7,6.6c3.3,6,3.3,13.2,0,19.2c-1.6,2.8-3.9,5.1-6.7,6.6
			C62.6,233.5,55.5,233.5,49.7,230.4z M65.5,225.9c1.9-1.1,3.4-2.7,4.4-4.7c1.1-2.2,1.6-4.6,1.6-7.1c0.1-2.5-0.5-4.9-1.6-7.1
			c-1-2-2.5-3.6-4.4-4.7c-4-2.2-8.9-2.2-12.9,0c-1.9,1.1-3.4,2.7-4.4,4.7c-1.1,2.2-1.7,4.6-1.6,7.1c-0.1,2.5,0.5,4.9,1.6,7.1
			c1,2,2.5,3.6,4.4,4.7C56.6,228.1,61.5,228.1,65.5,225.9L65.5,225.9z"/>
		<path class="st2" d="M113.3,232.4h-6l-17.9-27.2v27.2h-6v-36.4h6l18,27.1v-27.1h6L113.3,232.4z"/>
		<path class="st2" d="M144.7,196v4.9H135v31.5h-6v-31.5h-9.7V196H144.7z"/>
		<path class="st2" d="M158,230.4c-2.8-1.6-5.2-3.9-6.8-6.6c-3.3-6-3.3-13.2,0-19.2c1.6-2.8,3.9-5.1,6.8-6.6
			c5.8-3.2,12.9-3.2,18.7,0c2.8,1.6,5.1,3.8,6.7,6.6c3.3,6,3.3,13.2,0,19.2c-1.6,2.8-3.9,5.1-6.7,6.6
			C170.9,233.5,163.8,233.5,158,230.4L158,230.4z M173.8,225.9c1.9-1.1,3.4-2.7,4.4-4.7c1.1-2.2,1.6-4.6,1.6-7.1
			c0.1-2.4-0.5-4.9-1.6-7.1c-1-1.9-2.5-3.6-4.4-4.7c-4-2.2-8.9-2.2-12.9,0c-1.9,1.1-3.4,2.7-4.4,4.7c-1.1,2.2-1.7,4.6-1.6,7.1
			c-0.1,2.5,0.5,4.9,1.6,7.1c1,2,2.5,3.6,4.4,4.7C164.9,228.1,169.8,228.1,173.8,225.9z"/>
		<path class="st2" d="M197.6,196v23.2c0,2.8,0.7,4.8,2.2,6.2c3.6,2.8,8.6,2.8,12.1,0c1.4-1.4,2.2-3.5,2.2-6.2V196h6v23.1
			c0.1,2.6-0.6,5.3-1.9,7.5c-1.2,2-3,3.6-5.2,4.6c-4.6,2-9.8,2-14.3,0c-2.1-1-3.9-2.6-5.1-4.6c-1.3-2.3-2-4.9-1.9-7.5V196H197.6z"/>
		<path class="st2" d="M246.7,232.4l-8.4-14.5h-4.6v14.5h-6V196h12.6c2.4-0.1,4.9,0.4,7.1,1.5c1.8,0.9,3.3,2.2,4.4,3.9
			c1,1.7,1.5,3.6,1.4,5.5c0,2.3-0.7,4.6-2.1,6.5c-1.6,2.1-3.8,3.5-6.4,3.9l9,15.1L246.7,232.4z M233.8,213.1h6.6
			c1.8,0.1,3.6-0.5,5-1.7c1.2-1.2,1.8-2.8,1.7-4.5c0.1-1.6-0.5-3.2-1.7-4.4c-1.4-1.2-3.2-1.7-5.1-1.6h-6.6L233.8,213.1z"/>
		<path class="st2" d="M290.8,232.4h-6l-17.9-27.2v27.2h-6v-36.4h6l18,27.1v-27.1h6L290.8,232.4z"/>
		<path class="st2" d="M320.6,224.9h-15.2l-2.6,7.4h-6.2l13-36.4h6.9l13,36.4h-6.3L320.6,224.9z M318.9,220.1l-5.9-16.9l-6,16.9
			L318.9,220.1z"/>
	</g>
</g>
</svg>
